<?xml version="1.0" encoding="UTF-8"?>
<!-- Generator: visioncortex VTracer 0.6.4 -->
<svg version="1.1" xmlns="http://www.w3.org/2000/svg" width="1024" height="1024">
<path d="M0 0 C337.92 0 675.84 0 1024 0 C1024 337.92 1024 675.84 1024 1024 C686.08 1024 348.16 1024 0 1024 C0 686.08 0 348.16 0 0 Z " fill="#050505" transform="translate(0,0)"/>
<path d="M0 0 C1.5 0 1.5 0 3.03 0.01 C67.15 0.23 132.3 17.43 186.56 52.31 C187.4 52.85 188.23 53.38 189.09 53.94 C204.79 64.09 219.44 75.08 233.56 87.31 C234.36 87.99 235.15 88.67 235.97 89.38 C241.79 94.48 247.27 99.91 252.75 105.38 C253.89 106.51 253.89 106.51 255.06 107.67 C259.76 112.39 264.25 117.23 268.56 122.31 C269.32 123.2 269.32 123.2 270.1 124.12 C294.24 152.71 314.04 185.39 327.56 220.31 C328.06 221.6 328.06 221.6 328.58 222.92 C338.92 249.71 345.71 277.7 348.56 306.31 C348.65 307.14 348.73 307.97 348.82 308.82 C349.83 319.86 349.81 330.92 349.81 342 C349.81 343.57 349.81 343.57 349.81 345.17 C349.8 361.09 349.28 376.59 346.56 392.31 C346.38 393.4 346.2 394.48 346.01 395.6 C340.7 426.59 331.54 457.09 317.56 485.31 C317.08 486.29 316.6 487.27 316.1 488.28 C306.13 508.3 294.99 526.82 281.1 544.35 C279.65 546.21 278.21 548.08 276.79 549.96 C269.94 558.95 262.44 567.2 254.56 575.31 C253.87 576.03 253.17 576.75 252.46 577.48 C245.02 585.12 237.62 592.65 229.21 599.22 C226.74 601.17 224.36 603.21 221.99 605.28 C192.05 631.3 154.49 649.69 117.56 663.31 C116.48 663.72 115.4 664.12 114.28 664.54 C105.9 667.62 97.47 670.14 88.81 672.31 C88.14 672.48 87.47 672.65 86.78 672.83 C70.57 676.87 54.13 679.28 37.56 681.31 C36.89 681.4 36.23 681.49 35.54 681.58 C29.19 682.38 22.89 682.49 16.5 682.52 C15.34 682.52 14.19 682.53 13.01 682.53 C10.57 682.54 8.14 682.55 5.7 682.55 C2.06 682.56 -1.58 682.59 -5.22 682.62 C-20.53 682.69 -35.31 681.61 -50.44 679.31 C-52.52 679.01 -54.6 678.71 -56.69 678.4 C-91.55 673.25 -126.3 661.72 -157.51 645.32 C-159.48 644.29 -161.47 643.28 -163.46 642.27 C-187.33 630.06 -209.3 614.99 -229.44 597.31 C-230.54 596.36 -230.54 596.36 -231.66 595.39 C-233.6 593.71 -235.52 592.02 -237.44 590.31 C-238.24 589.6 -239.04 588.9 -239.86 588.17 C-247.93 580.99 -255.43 573.53 -262.44 565.31 C-263.25 564.38 -264.06 563.44 -264.9 562.48 C-305.42 515.59 -331.55 459.47 -343.62 398.81 C-343.78 398.06 -343.94 397.3 -344.09 396.52 C-347.48 378.67 -347.84 360.61 -347.81 342.5 C-347.81 341.34 -347.81 340.18 -347.81 338.98 C-347.79 320.4 -346.72 302.61 -343.44 284.31 C-343.13 282.42 -342.83 280.52 -342.53 278.63 C-337.95 251.19 -328.31 224.4 -316.44 199.31 C-316.07 198.54 -315.71 197.76 -315.34 196.96 C-303.71 172.31 -288.95 149.21 -271.44 128.31 C-271 127.78 -270.55 127.25 -270.1 126.71 C-263.55 118.86 -256.79 111.43 -249.44 104.31 C-246.99 101.88 -244.55 99.43 -242.15 96.95 C-237.16 91.84 -232.02 87.14 -226.43 82.69 C-224.37 81.06 -222.36 79.41 -220.36 77.71 C-201.2 61.68 -179.68 48.56 -157.44 37.31 C-156.7 36.93 -155.96 36.56 -155.2 36.17 C-107.3 11.84 -53.58 -0.21 0 0 Z " fill="#050505" transform="translate(511.4375,170.6875)"/>
<path d="M0 0 C1.5 0 1.5 0 3.03 0.01 C67.15 0.23 132.3 17.43 186.56 52.31 C187.4 52.85 188.23 53.38 189.09 53.94 C204.79 64.09 219.44 75.08 233.56 87.31 C234.36 87.99 235.15 88.67 235.97 89.38 C241.79 94.48 247.27 99.91 252.75 105.38 C253.89 106.51 253.89 106.51 255.06 107.67 C259.76 112.39 264.25 117.23 268.56 122.31 C269.32 123.2 269.32 123.2 270.1 124.12 C294.24 152.71 314.04 185.39 327.56 220.31 C328.06 221.6 328.06 221.6 328.58 222.92 C338.92 249.71 345.71 277.7 348.56 306.31 C348.65 307.14 348.73 307.97 348.82 308.82 C349.83 319.86 349.81 330.92 349.81 342 C349.81 343.57 349.81 343.57 349.81 345.17 C349.8 361.09 349.28 376.59 346.56 392.31 C346.38 393.4 346.2 394.48 346.01 395.6 C340.7 426.59 331.54 457.09 317.56 485.31 C317.08 486.29 316.6 487.27 316.1 488.28 C306.13 508.3 294.99 526.82 281.1 544.35 C279.65 546.21 278.21 548.08 276.79 549.96 C269.94 558.95 262.44 567.2 254.56 575.31 C253.87 576.03 253.17 576.75 252.46 577.48 C245.02 585.12 237.62 592.65 229.21 599.22 C226.74 601.17 224.36 603.21 221.99 605.28 C192.05 631.3 154.49 649.69 117.56 663.31 C116.48 663.72 115.4 664.12 114.28 664.54 C105.9 667.62 97.47 670.14 88.81 672.31 C88.14 672.48 87.47 672.65 86.78 672.83 C70.57 676.87 54.13 679.28 37.56 681.31 C36.89 681.4 36.23 681.49 35.54 681.58 C29.19 682.38 22.89 682.49 16.5 682.52 C15.34 682.52 14.19 682.53 13.01 682.53 C10.57 682.54 8.14 682.55 5.7 682.55 C2.06 682.56 -1.58 682.59 -5.22 682.62 C-20.53 682.69 -35.31 681.61 -50.44 679.31 C-52.52 679.01 -54.6 678.71 -56.69 678.4 C-91.55 673.25 -126.3 661.72 -157.51 645.32 C-159.48 644.29 -161.47 643.28 -163.46 642.27 C-187.33 630.06 -209.3 614.99 -229.44 597.31 C-230.54 596.36 -230.54 596.36 -231.66 595.39 C-233.6 593.71 -235.52 592.02 -237.44 590.31 C-238.24 589.6 -239.04 588.9 -239.86 588.17 C-247.93 580.99 -255.43 573.53 -262.44 565.31 C-263.25 564.38 -264.06 563.44 -264.9 562.48 C-305.42 515.59 -331.55 459.47 -343.62 398.81 C-343.78 398.06 -343.94 397.3 -344.09 396.52 C-347.48 378.67 -347.84 360.61 -347.81 342.5 C-347.81 341.34 -347.81 340.18 -347.81 338.98 C-347.79 320.4 -346.72 302.61 -343.44 284.31 C-343.13 282.42 -342.83 280.52 -342.53 278.63 C-337.95 251.19 -328.31 224.4 -316.44 199.31 C-316.07 198.54 -315.71 197.76 -315.34 196.96 C-303.71 172.31 -288.95 149.21 -271.44 128.31 C-271 127.78 -270.55 127.25 -270.1 126.71 C-263.55 118.86 -256.79 111.43 -249.44 104.31 C-246.99 101.88 -244.55 99.43 -242.15 96.95 C-237.16 91.84 -232.02 87.14 -226.43 82.69 C-224.37 81.06 -222.36 79.41 -220.36 77.71 C-201.2 61.68 -179.68 48.56 -157.44 37.31 C-156.7 36.93 -155.96 36.56 -155.2 36.17 C-107.3 11.84 -53.58 -0.21 0 0 Z M-54.44 37.31 C-55.44 37.51 -56.45 37.71 -57.49 37.91 C-63.02 39.03 -68.5 40.3 -73.97 41.69 C-76.35 42.29 -78.74 42.86 -81.13 43.43 C-143.59 58.55 -204.76 97.56 -244.44 148.31 C-245.12 149.12 -245.81 149.93 -246.52 150.76 C-271.68 180.37 -290.01 216.34 -301.44 253.31 C-301.73 254.25 -302.02 255.19 -302.33 256.16 C-324.88 329.03 -317.04 410.98 -281.49 478.5 C-280.81 479.77 -280.12 481.04 -279.44 482.31 C-279.06 483.02 -278.69 483.74 -278.3 484.47 C-272.4 495.62 -265.84 506.1 -258.44 516.31 C-258.04 516.87 -257.64 517.42 -257.22 517.99 C-246.43 532.81 -234.52 546.48 -221.44 559.31 C-220.27 560.49 -220.27 560.49 -219.07 561.69 C-174.98 605.59 -117.09 633.39 -56.44 645.31 C-55.65 645.47 -54.87 645.62 -54.06 645.79 C-21.31 652.15 13.65 652.6 46.56 647.31 C47.6 647.15 48.64 646.98 49.71 646.81 C78.36 642.05 105.12 634.15 131.56 622.31 C132.47 621.91 133.38 621.52 134.31 621.11 C159.02 610.24 181.71 595.36 202.56 578.31 C203.11 577.87 203.65 577.44 204.21 576.98 C218.46 565.42 231.66 552.27 243.56 538.31 C244.37 537.39 245.18 536.46 246.01 535.5 C257.69 521.79 267.44 506.82 276.56 491.31 C276.98 490.61 277.4 489.91 277.83 489.19 C294.93 460.54 305.97 427.91 312.56 395.31 C312.77 394.31 312.98 393.32 313.2 392.29 C316.55 375.77 316.95 359.36 317 342.56 C317.01 341.54 317.01 340.52 317.02 339.47 C317.09 320.09 315.27 300.94 311.38 281.94 C311.17 280.93 310.96 279.92 310.75 278.88 C308.18 266.78 304.48 255.03 300.56 243.31 C300.31 242.56 300.07 241.8 299.81 241.02 C288.04 205.64 266.74 168.92 240.94 141.83 C239.01 139.78 237.16 137.7 235.32 135.57 C225.43 124.21 214.55 113.44 202.56 104.31 C201.13 103.18 201.13 103.18 199.68 102.02 C170.73 79.21 137.85 60.23 102.56 49.31 C101.73 49.05 100.89 48.79 100.03 48.51 C88.97 45.04 77.85 41.92 66.56 39.31 C64.86 38.91 64.86 38.91 63.12 38.51 C42.76 34.09 22.16 32.75 1.38 32.88 C0.27 32.88 -0.83 32.88 -1.97 32.88 C-19.75 32.95 -36.95 33.87 -54.44 37.31 Z " fill="#FCFBFC" transform="translate(511.4375,170.6875)"/>
<path d="M0 0 C7.25 4.58 14.43 9.24 21.56 14 C23.08 15.01 23.08 15.01 24.62 16.04 C42.13 27.75 59.55 39.58 76.98 51.41 C77.61 51.84 78.24 52.27 78.89 52.71 C81.83 54.71 84.78 56.71 87.72 58.71 C92.79 62.15 97.86 65.58 102.96 68.98 C109.4 73.26 115.8 77.59 122.19 81.94 C123.41 82.77 124.64 83.6 125.87 84.44 C129.58 86.96 133.29 89.48 137 92 C137.56 92.38 138.12 92.76 138.69 93.15 C148.13 99.57 157.57 105.98 167.01 112.41 C168.69 113.55 170.37 114.7 172.05 115.84 C174.14 117.27 176.24 118.69 178.33 120.12 C183.1 123.36 187.87 126.59 192.67 129.78 C199.71 134.46 206.72 139.2 213.72 143.94 C216.66 145.93 219.6 147.92 222.55 149.9 C223.99 150.88 225.42 151.87 226.84 152.87 C230.12 155.16 233.28 157.21 236.93 158.85 C240.79 160.7 243.39 162.49 246 166 C248.1 174.12 247.22 182.77 246.81 191.06 C246.75 193.38 246.69 195.7 246.63 198.02 C246.49 203.68 246.28 209.34 246 215 C231.56 207.87 218.15 198.26 205 189 C201.58 186.6 198.17 184.21 194.75 181.81 C193.89 181.21 193.02 180.6 192.13 179.98 C187.85 176.97 183.55 174 179.19 171.12 C172.27 166.56 165.49 161.8 158.7 157.06 C153.08 153.14 147.46 149.24 141.81 145.38 C135.91 141.33 130.04 137.24 124.19 133.12 C116.88 127.99 109.53 122.93 102.15 117.9 C95.55 113.39 89.01 108.82 82.48 104.23 C76.85 100.28 71.19 96.38 65.5 92.5 C56.34 86.26 47.26 79.9 38.19 73.53 C33.75 70.42 29.3 67.34 24.83 64.26 C22.6 62.73 20.38 61.18 18.16 59.63 C16.44 58.44 14.72 57.25 13 56.06 C12.19 55.49 11.37 54.93 10.53 54.34 C9.76 53.81 8.98 53.27 8.19 52.72 C7.5 52.25 6.81 51.77 6.11 51.28 C3.76 49.85 1.64 48.77 -1 48 C-3.56 49.45 -5.56 50.85 -7.81 52.69 C-9.15 53.73 -10.5 54.76 -11.84 55.8 C-12.53 56.33 -13.22 56.87 -13.93 57.42 C-17.16 59.88 -20.51 62.16 -23.88 64.44 C-29.37 68.18 -34.82 71.97 -40.25 75.81 C-53.72 85.34 -67.23 94.81 -80.86 104.11 C-89.96 110.32 -98.98 116.66 -108 123 C-117.95 129.98 -127.91 136.96 -137.94 143.83 C-144.02 148 -150.06 152.23 -156.09 156.46 C-163.45 161.62 -170.83 166.76 -178.21 171.89 C-183.14 175.31 -188.06 178.74 -192.97 182.18 C-239.84 215 -239.84 215 -245 215 C-249.04 171.12 -249.04 171.12 -242.81 162.22 C-237.41 156.84 -231.1 153.92 -224.03 151.26 C-219.16 149.24 -215.21 146.13 -211 143 C-209.19 141.75 -207.37 140.5 -205.54 139.27 C-204.59 138.62 -203.64 137.97 -202.66 137.31 C-201.16 136.29 -201.16 136.29 -199.62 135.25 C-198.55 134.52 -197.48 133.79 -196.37 133.04 C-190.56 129.09 -184.74 125.14 -178.92 121.2 C-178.33 120.8 -177.74 120.4 -177.14 119.99 C-172.31 116.71 -172.31 116.71 -170.04 115.17 C-161.17 109.15 -152.3 103.12 -143.45 97.07 C-139.11 94.1 -134.75 91.16 -130.38 88.25 C-122.89 83.27 -115.45 78.23 -108 73.19 C-106.49 72.17 -104.98 71.14 -103.47 70.12 C-94.31 63.92 -85.15 57.71 -76 51.5 C-65.59 44.43 -55.17 37.37 -44.75 30.31 C-43.67 29.58 -43.67 29.58 -42.57 28.84 C-32.13 21.77 -21.67 14.75 -11.16 7.78 C-10.26 7.19 -9.37 6.6 -8.45 5.98 C-7.68 5.48 -6.91 4.97 -6.12 4.44 C-4.03 3.02 -2.01 1.53 0 0 Z " fill="#FCFCFD" transform="translate(513,356)"/>
<path d="M0 0 C15.84 0 31.68 0 48 0 C48 31.35 48 62.7 48 95 C32.16 95 16.32 95 0 95 C0 63.65 0 32.3 0 0 Z " fill="#FEFDFE" transform="translate(397,523)"/>
<path d="M0 0 C15.84 0 31.68 0 48 0 C48 31.02 48 62.04 48 94 C32.16 94 16.32 94 0 94 C0 62.98 0 31.96 0 0 Z " fill="#FEFDFE" transform="translate(586,524)"/>
<path d="M0 0 C15.84 0 31.68 0 48 0 C48 31.02 48 62.04 48 94 C32.16 94 16.32 94 0 94 C0 62.98 0 31.96 0 0 Z " fill="#FEFDFE" transform="translate(460,524)"/>
<path d="M0 0 C15.51 0 31.02 0 47 0 C47 31.02 47 62.04 47 94 C31.49 94 15.98 94 0 94 C0 62.98 0 31.96 0 0 Z " fill="#FDFDFD" transform="translate(524,524)"/>
<path d="M0 0 C0 30.69 0 61.38 0 93 C-15.84 93 -31.68 93 -48 93 C-48 70.56 -48 48.12 -48 25 C-39.42 20.38 -30.84 15.76 -22 11 C-12.82 5.91 -12.82 5.91 -3.65 0.79 C-2 0 -2 0 0 0 Z " fill="#FAFAFA" transform="translate(382,525)"/>
<path d="M0 0 C4.06 1.35 7.08 2.43 10.7 4.43 C11.58 4.92 12.46 5.4 13.37 5.9 C14.28 6.41 15.19 6.92 16.12 7.44 C16.98 7.91 17.83 8.38 18.71 8.87 C21.81 10.57 24.91 12.29 28 14 C34.6 17.63 41.2 21.26 48 25 C48 47.11 48 69.22 48 92 C32.16 92 16.32 92 0 92 C0 61.64 0 31.28 0 0 Z " fill="#FAFAFB" transform="translate(650,526)"/>
<path d="M0 0 C15.84 0 31.68 0 48 0 C48 31.02 48 62.04 48 94 C32.16 94 16.32 94 0 94 C0 62.98 0 31.96 0 0 Z M3 2 C3 32.03 3 62.06 3 93 C17.19 93 31.38 93 46 93 C46 62.97 46 32.94 46 2 C31.81 2 17.62 2 3 2 Z " fill="#E5E4E5" transform="translate(586,524)"/>
<path d="M0 0 C15.84 0 31.68 0 48 0 C48 31.35 48 62.7 48 95 C32.16 95 16.32 95 0 95 C0 63.65 0 32.3 0 0 Z M3 3 C3 33.03 3 63.06 3 94 C17.52 94 32.04 94 47 94 C47 63.97 47 33.94 47 3 C32.48 3 17.96 3 3 3 Z " fill="#DEDEDE" transform="translate(397,523)"/>
<path d="M0 0 C15.84 0 31.68 0 48 0 C48 31.02 48 62.04 48 94 C32.16 94 16.32 94 0 94 C0 62.98 0 31.96 0 0 Z M1 2 C1 32.03 1 62.06 1 93 C16.18 93 31.36 93 47 93 C46.67 62.97 46.34 32.94 46 2 C31.15 2 16.3 2 1 2 Z " fill="#E0E0E0" transform="translate(460,524)"/>
<path d="M0 0 C0.66 0 1.32 0 2 0 C3.52 3.03 3.14 6.18 3.13 9.5 C3.13 10.25 3.13 11 3.14 11.77 C3.14 13.37 3.13 14.96 3.13 16.56 C3.13 18.96 3.13 21.37 3.14 23.78 C3.14 31.59 2.99 39.24 2 47 C1.67 47 1.34 47 1 47 C-0.27 37.3 -0.11 27.64 -0.06 17.88 C-0.06 16.14 -0.05 14.4 -0.05 12.66 C-0.04 8.44 -0.02 4.22 0 0 Z " fill="#171817" transform="translate(861,495)"/>
<path d="M0 0 C16.83 0.33 33.66 0.66 51 1 C51 1.33 51 1.66 51 2 C41.43 2.33 31.86 2.66 22 3 C22 3.33 22 3.66 22 4 C14.74 3.67 7.48 3.34 0 3 C0 2.01 0 1.02 0 0 Z " fill="#202120" transform="translate(478,852)"/>
<path d="M0 0 C0.33 0 0.66 0 1 0 C1 14.85 1 29.7 1 45 C2.32 45.66 3.64 46.32 5 47 C3.35 47.66 1.7 48.32 0 49 C0 32.83 0 16.66 0 0 Z " fill="#E9E9E9" transform="translate(268,522)"/>
<path d="M0 0 C-0.33 0.99 -0.66 1.98 -1 3 C-7.85 4.37 -14.15 4.37 -21 3 C-21 2.67 -21 2.34 -21 2 C-18.63 1.66 -16.25 1.33 -13.88 1 C-12.88 0.86 -12.88 0.86 -11.86 0.71 C-7.87 0.16 -4.02 -0.1 0 0 Z " fill="#202121" transform="translate(570,849)"/>
<path d="M0 0 C1.46 4.52 0.27 7.52 -1 12 C-1.66 12 -2.32 12 -3 12 C-3 12.66 -3 13.32 -3 14 C-3.66 14 -4.32 14 -5 14 C-3.46 9.28 -1.92 4.58 0 0 Z " fill="#1C1C1D" transform="translate(223,389)"/>
<path d="M0 0 C1.17 0.11 2.34 0.22 3.55 0.34 C4.44 0.43 5.33 0.53 6.25 0.62 C6.25 0.96 6.25 1.28 6.25 1.62 C0.34 2.4 -4.88 2.77 -10.75 1.62 C-7.08 -0.75 -4.26 -0.43 0 0 Z " fill="#161616" transform="translate(470.75,815.375)"/>
<path d="M0 0 C0.99 0.33 1.98 0.66 3 1 C2.51 7.4 2.51 7.4 -0.06 10.44 C-1.02 11.21 -1.02 11.21 -2 12 C-1 3.43 -1 3.43 0 0 Z " fill="#212121" transform="translate(206,437)"/>
<path d="M0 0 C4.29 0.66 8.58 1.32 13 2 C9.65 4.24 9.09 4.17 5.31 3.62 C4.5 3.51 3.7 3.4 2.86 3.29 C2.25 3.19 1.63 3.1 1 3 C0.67 2.01 0.34 1.02 0 0 Z " fill="#181817" transform="translate(431,844)"/>
<path d="M0 0 C0.66 0.66 1.32 1.32 2 2 C1.68 5.81 1.14 7.78 -1 11 C-1.66 11 -2.32 11 -3 11 C-2.01 7.37 -1.02 3.74 0 0 Z " fill="#202020" transform="translate(847,607)"/>
<path d="M0 0 C0.33 0.99 0.66 1.98 1 3 C-0.14 4.72 -0.14 4.72 -1.81 6.5 C-3.78 8.64 -5.37 10.56 -7 13 C-7.66 13 -8.32 13 -9 13 C-7.51 9.72 -5.61 7.07 -3.38 4.25 C-2.74 3.45 -2.11 2.65 -1.46 1.83 C-0.98 1.22 -0.5 0.62 0 0 Z " fill="#E7E6E8" transform="translate(243,295)"/>
<path d="M0 0 C0.33 0.99 0.66 1.98 1 3 C-2.96 3 -6.92 3 -11 3 C-6.94 0.97 -4.48 0 0 0 Z " fill="#2B2B2B" transform="translate(606,841)"/>
<path d="M0 0 C4.19 0.67 7.4 2.86 11 5 C8 6 8 6 5 5 C5 4.34 5 3.68 5 3 C3.35 2.67 1.7 2.34 0 2 C0 1.34 0 0.68 0 0 Z " fill="#161515" transform="translate(733,556)"/>
<path d="M0 0 C0.66 0.33 1.32 0.66 2 1 C1.01 4.3 0.02 7.6 -1 11 C-1.66 9.68 -2.32 8.36 -3 7 C-2.67 6.01 -2.34 5.02 -2 4 C-1.34 4 -0.68 4 0 4 C-0.33 3.01 -0.66 2.02 -1 1 C-0.67 0.67 -0.34 0.34 0 0 Z " fill="#EAEAEA" transform="translate(216,401)"/>
<path d="M0 0 C0.66 0.66 1.32 1.32 2 2 C1.65 5.44 0.95 7.07 -1 10 C-1.66 10 -2.32 10 -3 10 C-2.01 6.7 -1.02 3.4 0 0 Z " fill="#E4E3E4" transform="translate(187,388)"/>
<path d="M0 0 C0.33 0 0.66 0 1 0 C1.23 5.42 0.47 9.77 -1 15 C-1.33 15 -1.66 15 -2 15 C-2 11.7 -2 8.4 -2 5 C-1.34 5 -0.68 5 0 5 C0 3.35 0 1.7 0 0 Z " fill="#1F1F1F" transform="translate(827,489)"/>
<path d="M0 0 C-0.33 0.99 -0.66 1.98 -1 3 C-3.88 3.62 -3.88 3.62 -7 4 C-7.66 3.34 -8.32 2.68 -9 2 C-3.38 0 -3.38 0 0 0 Z " fill="#1F2020" transform="translate(416,219)"/>
<path d="M0 0 C0.33 0 0.66 0 1 0 C1.33 3.3 1.66 6.6 2 10 C1.01 10 0.02 10 -1 10 C-0.67 6.7 -0.34 3.4 0 0 Z " fill="#1F2020" transform="translate(855,573)"/>
<path d="M0 0 C3.37 1.39 4.99 2.98 7 6 C4 6 4 6 1.81 4.12 C0 2 0 2 0 0 Z " fill="#1D1D1E" transform="translate(249,737)"/>
<path d="M0 0 C0.66 0.66 1.32 1.32 2 2 C0.68 4.64 -0.64 7.28 -2 10 C-2.33 10 -2.66 10 -3 10 C-3 8.35 -3 6.7 -3 5 C-2.34 5 -1.68 5 -1 5 C-0.67 3.35 -0.34 1.7 0 0 Z " fill="#EAEAEA" transform="translate(823,662)"/>
<path d="M0 0 C0.66 0 1.32 0 2 0 C2.75 1.75 2.75 1.75 3 4 C1.06 6.25 1.06 6.25 -1 8 C-0.67 5.36 -0.34 2.72 0 0 Z " fill="#D6D5D7" transform="translate(822,570)"/>
<path d="M0 0 C0.99 0.66 1.98 1.32 3 2 C0.7 3.07 -1.64 4.06 -4 5 C-4.66 4.67 -5.32 4.34 -6 4 C-4.02 2.68 -2.04 1.36 0 0 Z " fill="#181818" transform="translate(303,549)"/>
<path d="M0 0 C0.66 0.99 1.32 1.98 2 3 C1.12 6.19 1.12 6.19 0 9 C-0.66 8.67 -1.32 8.34 -2 8 C-1.34 5.36 -0.68 2.72 0 0 Z " fill="#E4E4E5" transform="translate(809,615)"/>
</svg>
